<?xml version="1.0" encoding="utf-8"?>
<!-- Generator: Adobe Illustrator 23.0.1, SVG Export Plug-In . SVG Version: 6.00 Build 0)  -->
<svg version="1.1" id="Layer_1" xmlns="http://www.w3.org/2000/svg" xmlns:xlink="http://www.w3.org/1999/xlink" x="0px" y="0px"
	 viewBox="0 0 281 80" style="enable-background:new 0 0 281 80;" xml:space="preserve">
<g>
	<g>
		<g>
			<path d="M93.9,39.7c-1.4,0.7-3.2,1-5.5,1c-2.9,0-5.2-0.9-6.9-2.6c-1.7-1.7-2.5-4-2.5-6.9c0-3.1,0.9-5.5,2.8-7.4
				c1.9-1.9,4.3-2.8,7.3-2.8c1.9,0,3.4,0.2,4.7,0.7v4.1c-1.3-0.8-2.7-1.1-4.4-1.1c-1.8,0-3.2,0.6-4.3,1.7c-1.1,1.1-1.7,2.7-1.7,4.6
				c0,1.8,0.5,3.3,1.6,4.4c1,1.1,2.4,1.6,4.2,1.6c1.7,0,3.2-0.4,4.6-1.2V39.7z"/>
			<path d="M115.7,40.4h-4v-2h-0.1c-0.9,1.5-2.3,2.3-4.1,2.3c-1.3,0-2.4-0.4-3.1-1.1c-0.8-0.7-1.1-1.8-1.1-3c0-2.6,1.6-4.2,4.7-4.6
				l3.7-0.5c0-1.5-0.8-2.2-2.4-2.2c-1.6,0-3.2,0.5-4.6,1.5v-3.2c0.6-0.3,1.4-0.6,2.4-0.8c1-0.2,1.9-0.3,2.8-0.3
				c3.9,0,5.8,1.9,5.8,5.8V40.4z M111.7,34.9v-0.9l-2.5,0.3c-1.4,0.2-2.1,0.8-2.1,1.9c0,0.5,0.2,0.9,0.5,1.2
				c0.3,0.3,0.8,0.5,1.4,0.5c0.8,0,1.4-0.3,1.9-0.8C111.5,36.4,111.7,35.7,111.7,34.9z"/>
			<path d="M131.2,33.8v6.6h-4.3V21.3h6.7c4.8,0,7.2,2,7.2,6.1c0,1.9-0.7,3.5-2.1,4.7c-1.4,1.2-3.2,1.8-5.5,1.8H131.2z M131.2,24.6
				v6h1.7c2.3,0,3.4-1,3.4-3c0-2-1.1-2.9-3.4-2.9H131.2z"/>
			<path d="M158.2,34.6h-7.3v-2.9h7.3V34.6z"/>
			<path d="M186.3,40.4H182v-7.8h-7.9v7.8h-4.3V21.3h4.3v7.6h7.9v-7.6h4.3V40.4z"/>
			<path d="M204.3,40.7c-2.3,0-4.1-0.6-5.4-1.9c-1.3-1.3-2-3-2-5.2c0-2.3,0.7-4,2-5.3c1.3-1.3,3.2-1.9,5.5-1.9c2.3,0,4,0.6,5.3,1.9
				c1.3,1.3,1.9,3,1.9,5.1c0,2.3-0.7,4.1-2,5.4C208.4,40.1,206.6,40.7,204.3,40.7z M204.4,29.7c-1,0-1.8,0.3-2.3,1
				c-0.6,0.7-0.8,1.7-0.8,2.9c0,2.6,1.1,3.9,3.2,3.9c2,0,3-1.3,3-4C207.4,30.9,206.4,29.7,204.4,29.7z"/>
			<path d="M237.9,32.1c0,5.7-2.7,8.6-8,8.6c-5.2,0-7.8-2.8-7.8-8.4v-11h4.3v11.1c0,3.1,1.2,4.6,3.6,4.6c2.4,0,3.6-1.5,3.6-4.5V21.3
				h4.3V32.1z"/>
			<path d="M248.3,40v-3.4c0.7,0.4,1.4,0.7,2.1,0.9c0.7,0.2,1.3,0.3,2,0.3c0.7,0,1.3-0.1,1.8-0.3c0.4-0.2,0.6-0.5,0.6-0.9
				c0-0.3-0.1-0.5-0.3-0.7c-0.2-0.2-0.4-0.3-0.8-0.5c-0.3-0.1-0.6-0.3-1-0.4c-0.4-0.1-0.7-0.2-1.1-0.4c-0.5-0.2-1-0.4-1.4-0.7
				c-0.4-0.2-0.8-0.5-1-0.8c-0.3-0.3-0.5-0.7-0.6-1.1c-0.1-0.4-0.2-0.9-0.2-1.5c0-0.8,0.2-1.4,0.5-2c0.3-0.6,0.8-1,1.3-1.4
				c0.6-0.4,1.2-0.6,1.9-0.8c0.7-0.2,1.5-0.2,2.2-0.2c0.6,0,1.2,0,1.8,0.1c0.6,0.1,1.2,0.2,1.8,0.4v3.2c-0.5-0.3-1.1-0.5-1.7-0.7
				c-0.6-0.2-1.2-0.2-1.8-0.2c-0.3,0-0.5,0-0.8,0.1c-0.2,0-0.5,0.1-0.6,0.2c-0.2,0.1-0.3,0.2-0.4,0.4c-0.1,0.1-0.2,0.3-0.2,0.5
				c0,0.2,0.1,0.5,0.2,0.6c0.2,0.2,0.4,0.3,0.6,0.5c0.3,0.1,0.5,0.2,0.9,0.3c0.3,0.1,0.6,0.2,0.9,0.3c0.6,0.2,1.1,0.4,1.5,0.6
				c0.5,0.2,0.8,0.5,1.2,0.8c0.3,0.3,0.6,0.7,0.7,1.1c0.2,0.4,0.3,0.9,0.3,1.5c0,0.8-0.2,1.5-0.5,2.1c-0.3,0.6-0.8,1-1.4,1.4
				c-0.6,0.4-1.3,0.6-2,0.8c-0.8,0.2-1.5,0.2-2.4,0.2C251,40.7,249.6,40.5,248.3,40z"/>
			<path d="M280.6,40.4h-11.5V21.3h11v3.5h-6.7v4.2h6.2v3.5h-6.2v4.4h7.1V40.4z"/>
		</g>
		<g>
			<path d="M87,59.4h-1.9v-0.9h0c-0.4,0.7-1.1,1.1-2,1.1c-0.6,0-1.1-0.2-1.5-0.5c-0.4-0.4-0.5-0.8-0.5-1.4c0-1.3,0.8-2,2.3-2.2
				l1.8-0.2c0-0.7-0.4-1.1-1.2-1.1c-0.8,0-1.5,0.2-2.2,0.7v-1.5c0.3-0.1,0.7-0.3,1.2-0.4c0.5-0.1,0.9-0.2,1.3-0.2
				c1.9,0,2.8,0.9,2.8,2.8V59.4z M85.1,56.7v-0.4l-1.2,0.2c-0.7,0.1-1,0.4-1,0.9c0,0.2,0.1,0.4,0.2,0.6c0.2,0.1,0.4,0.2,0.7,0.2
				c0.4,0,0.7-0.1,0.9-0.4C85,57.5,85.1,57.1,85.1,56.7z"/>
			<path d="M94.9,59.4h-2v-3.7c0-1-0.4-1.5-1.1-1.5c-0.4,0-0.6,0.1-0.9,0.4c-0.2,0.3-0.3,0.6-0.3,1v3.8h-2v-6.6h2v1h0
				c0.5-0.8,1.2-1.2,2.1-1.2c1.5,0,2.2,0.9,2.2,2.7V59.4z"/>
			<path d="M101.2,51.8c-0.3,0-0.6-0.1-0.8-0.3c-0.2-0.2-0.3-0.5-0.3-0.7c0-0.3,0.1-0.6,0.3-0.7c0.2-0.2,0.5-0.3,0.8-0.3
				c0.3,0,0.6,0.1,0.8,0.3c0.2,0.2,0.3,0.4,0.3,0.7c0,0.3-0.1,0.6-0.3,0.8C101.8,51.7,101.5,51.8,101.2,51.8z M102.2,59.4h-2v-6.6h2
				V59.4z"/>
			<path d="M110.3,59.4h-2v-3.7c0-1-0.4-1.5-1.1-1.5c-0.4,0-0.6,0.1-0.9,0.4c-0.2,0.3-0.3,0.6-0.3,1v3.8h-2v-6.6h2v1h0
				c0.5-0.8,1.2-1.2,2.1-1.2c1.5,0,2.2,0.9,2.2,2.7V59.4z"/>
			<path d="M116.8,59.2c-0.5,0.3-1.1,0.4-2,0.4c-1,0-1.8-0.3-2.5-0.9c-0.6-0.6-0.9-1.4-0.9-2.4c0-1.1,0.3-2,1-2.6
				c0.7-0.6,1.6-1,2.7-1c0.8,0,1.3,0.1,1.7,0.3v1.7c-0.4-0.3-0.9-0.5-1.4-0.5c-0.6,0-1,0.2-1.4,0.5c-0.3,0.3-0.5,0.8-0.5,1.4
				c0,0.6,0.2,1,0.5,1.4c0.3,0.3,0.8,0.5,1.3,0.5c0.5,0,1-0.2,1.5-0.5V59.2z"/>
			<path d="M122.5,54.7c-0.2-0.1-0.5-0.2-0.9-0.2c-0.4,0-0.8,0.2-1,0.5c-0.2,0.3-0.4,0.8-0.4,1.3v3.1h-2v-6.6h2V54h0
				c0.3-0.9,0.9-1.3,1.7-1.3c0.2,0,0.4,0,0.5,0.1V54.7z"/>
			<path d="M129.3,56.7H125c0.1,1,0.7,1.4,1.8,1.4c0.7,0,1.4-0.2,1.9-0.5v1.5c-0.6,0.3-1.4,0.5-2.4,0.5c-1.1,0-1.9-0.3-2.5-0.9
				c-0.6-0.6-0.9-1.4-0.9-2.5c0-1.1,0.3-2,1-2.6c0.6-0.6,1.4-1,2.3-1c1,0,1.7,0.3,2.2,0.9c0.5,0.6,0.8,1.3,0.8,2.3V56.7z
				 M127.4,55.4c0-0.9-0.4-1.4-1.1-1.4c-0.3,0-0.6,0.1-0.8,0.4c-0.2,0.3-0.4,0.6-0.4,1H127.4z"/>
			<path d="M137,59.4h-2v-0.9h0c-0.5,0.7-1.1,1.1-2,1.1c-0.8,0-1.5-0.3-2-0.9c-0.5-0.6-0.8-1.4-0.8-2.4c0-1.1,0.3-2,0.8-2.6
				c0.6-0.7,1.3-1,2.2-1c0.8,0,1.4,0.3,1.8,0.9h0v-3.9h2V59.4z M135,56.2v-0.5c0-0.4-0.1-0.8-0.4-1.1c-0.2-0.3-0.6-0.4-1-0.4
				c-0.4,0-0.8,0.2-1.1,0.5c-0.3,0.4-0.4,0.8-0.4,1.5c0,0.6,0.1,1,0.4,1.3c0.2,0.3,0.6,0.5,1,0.5c0.4,0,0.7-0.2,1-0.5
				C134.8,57.2,135,56.7,135,56.2z"/>
			<path d="M139.7,51.8c-0.3,0-0.6-0.1-0.8-0.3c-0.2-0.2-0.3-0.5-0.3-0.7c0-0.3,0.1-0.6,0.3-0.7c0.2-0.2,0.5-0.3,0.8-0.3
				c0.3,0,0.6,0.1,0.8,0.3c0.2,0.2,0.3,0.4,0.3,0.7c0,0.3-0.1,0.6-0.3,0.8C140.3,51.7,140,51.8,139.7,51.8z M140.7,59.4h-2v-6.6h2
				V59.4z"/>
			<path d="M144.5,58.6L144.5,58.6l0,0.8h-2v-9.7h2v4.1h0c0.5-0.8,1.2-1.1,2.1-1.1c0.8,0,1.5,0.3,2,0.9c0.5,0.6,0.7,1.4,0.7,2.4
				c0,1.1-0.3,2-0.8,2.6c-0.5,0.7-1.3,1-2.1,1C145.5,59.6,144.9,59.2,144.5,58.6z M144.4,55.9v0.7c0,0.4,0.1,0.8,0.4,1.1
				c0.2,0.3,0.6,0.4,0.9,0.4c0.5,0,0.8-0.2,1.1-0.5c0.3-0.4,0.4-0.9,0.4-1.5c0-0.5-0.1-1-0.3-1.3c-0.2-0.3-0.6-0.5-1-0.5
				c-0.4,0-0.7,0.2-1,0.5S144.4,55.4,144.4,55.9z"/>
			<path d="M152.6,59.4h-2v-9.7h2V59.4z"/>
			<path d="M160.2,56.7h-4.3c0.1,1,0.7,1.4,1.8,1.4c0.7,0,1.4-0.2,1.9-0.5v1.5c-0.6,0.3-1.4,0.5-2.4,0.5c-1.1,0-1.9-0.3-2.5-0.9
				c-0.6-0.6-0.9-1.4-0.9-2.5c0-1.1,0.3-2,1-2.6c0.6-0.6,1.4-1,2.3-1c1,0,1.7,0.3,2.2,0.9c0.5,0.6,0.8,1.3,0.8,2.3V56.7z
				 M158.3,55.4c0-0.9-0.4-1.4-1.1-1.4c-0.3,0-0.6,0.1-0.8,0.4c-0.2,0.3-0.4,0.6-0.4,1H158.3z"/>
			<path d="M170,59.2c-0.5,0.3-1.1,0.4-2,0.4c-1,0-1.8-0.3-2.5-0.9c-0.6-0.6-0.9-1.4-0.9-2.4c0-1.1,0.3-2,1-2.6c0.7-0.6,1.6-1,2.7-1
				c0.8,0,1.3,0.1,1.7,0.3v1.7c-0.4-0.3-0.9-0.5-1.4-0.5c-0.6,0-1,0.2-1.4,0.5c-0.3,0.3-0.5,0.8-0.5,1.4c0,0.6,0.2,1,0.5,1.4
				c0.3,0.3,0.8,0.5,1.3,0.5c0.5,0,1-0.2,1.5-0.5V59.2z"/>
			<path d="M176.8,59.4h-1.9v-0.9h0c-0.4,0.7-1.1,1.1-2,1.1c-0.6,0-1.1-0.2-1.5-0.5c-0.4-0.4-0.5-0.8-0.5-1.4c0-1.3,0.8-2,2.3-2.2
				l1.8-0.2c0-0.7-0.4-1.1-1.2-1.1c-0.8,0-1.5,0.2-2.2,0.7v-1.5c0.3-0.1,0.7-0.3,1.2-0.4c0.5-0.1,0.9-0.2,1.3-0.2
				c1.9,0,2.8,0.9,2.8,2.8V59.4z M174.9,56.7v-0.4l-1.2,0.2c-0.7,0.1-1,0.4-1,0.9c0,0.2,0.1,0.4,0.2,0.6c0.2,0.1,0.4,0.2,0.7,0.2
				c0.4,0,0.7-0.1,0.9-0.4C174.8,57.5,174.9,57.1,174.9,56.7z"/>
			<path d="M180.5,58.6L180.5,58.6l0,3.8h-2v-9.6h2v1h0c0.5-0.8,1.2-1.1,2.1-1.1c0.9,0,1.5,0.3,2,0.9c0.5,0.6,0.7,1.4,0.7,2.4
				c0,1.1-0.3,2-0.8,2.6c-0.5,0.7-1.3,1-2.2,1C181.5,59.6,180.9,59.2,180.5,58.6z M180.4,55.9v0.5c0,0.5,0.1,0.8,0.4,1.1
				c0.2,0.3,0.6,0.4,0.9,0.4c0.5,0,0.8-0.2,1.1-0.5c0.3-0.4,0.4-0.9,0.4-1.5c0-1.2-0.5-1.7-1.3-1.7c-0.4,0-0.8,0.2-1,0.5
				C180.6,55,180.4,55.4,180.4,55.9z"/>
			<path d="M198.8,59.2c-0.5,0.3-1.1,0.4-2,0.4c-1,0-1.8-0.3-2.5-0.9c-0.6-0.6-0.9-1.4-0.9-2.4c0-1.1,0.3-2,1-2.6
				c0.7-0.6,1.6-1,2.7-1c0.8,0,1.3,0.1,1.7,0.3v1.7c-0.4-0.3-0.9-0.5-1.4-0.5c-0.6,0-1,0.2-1.4,0.5s-0.5,0.8-0.5,1.4
				c0,0.6,0.2,1,0.5,1.4c0.3,0.3,0.8,0.5,1.3,0.5c0.5,0,1-0.2,1.5-0.5V59.2z"/>
			<path d="M203.3,59.6c-1.1,0-2-0.3-2.6-0.9c-0.6-0.6-0.9-1.4-0.9-2.5c0-1.1,0.3-1.9,1-2.6c0.7-0.6,1.5-0.9,2.6-0.9
				c1.1,0,1.9,0.3,2.6,0.9s0.9,1.4,0.9,2.4c0,1.1-0.3,2-1,2.6C205.3,59.2,204.4,59.6,203.3,59.6z M203.3,54.2
				c-0.5,0-0.9,0.2-1.1,0.5c-0.3,0.3-0.4,0.8-0.4,1.4c0,1.3,0.5,1.9,1.5,1.9c1,0,1.5-0.6,1.5-1.9C204.8,54.8,204.3,54.2,203.3,54.2z
				"/>
			<path d="M218.6,59.4h-2v-3.8c0-1-0.4-1.4-1.1-1.4c-0.3,0-0.6,0.1-0.8,0.4c-0.2,0.3-0.3,0.6-0.3,1.1v3.7h-2v-3.8
				c0-0.9-0.3-1.4-1-1.4c-0.3,0-0.6,0.1-0.8,0.4c-0.2,0.3-0.3,0.6-0.3,1.1v3.7h-2v-6.6h2v1h0c0.2-0.4,0.5-0.6,0.9-0.9
				c0.4-0.2,0.8-0.3,1.2-0.3c0.9,0,1.6,0.4,1.9,1.2c0.5-0.8,1.2-1.2,2.2-1.2c1.4,0,2.1,0.9,2.1,2.6V59.4z"/>
			<path d="M222.3,58.6L222.3,58.6l0,3.8h-2v-9.6h2v1h0c0.5-0.8,1.2-1.1,2.1-1.1c0.9,0,1.5,0.3,2,0.9c0.5,0.6,0.7,1.4,0.7,2.4
				c0,1.1-0.3,2-0.8,2.6s-1.3,1-2.2,1C223.3,59.6,222.7,59.2,222.3,58.6z M222.2,55.9v0.5c0,0.5,0.1,0.8,0.4,1.1
				c0.2,0.3,0.6,0.4,0.9,0.4c0.5,0,0.8-0.2,1.1-0.5c0.3-0.4,0.4-0.9,0.4-1.5c0-1.2-0.5-1.7-1.3-1.7c-0.4,0-0.8,0.2-1,0.5
				C222.4,55,222.2,55.4,222.2,55.9z"/>
			<path d="M233.9,59.4h-1.9v-0.9h0c-0.4,0.7-1.1,1.1-2,1.1c-0.6,0-1.1-0.2-1.5-0.5c-0.4-0.4-0.5-0.8-0.5-1.4c0-1.3,0.8-2,2.3-2.2
				l1.8-0.2c0-0.7-0.4-1.1-1.2-1.1c-0.8,0-1.5,0.2-2.2,0.7v-1.5c0.3-0.1,0.7-0.3,1.2-0.4c0.5-0.1,0.9-0.2,1.3-0.2
				c1.9,0,2.8,0.9,2.8,2.8V59.4z M231.9,56.7v-0.4l-1.2,0.2c-0.7,0.1-1,0.4-1,0.9c0,0.2,0.1,0.4,0.2,0.6c0.2,0.1,0.4,0.2,0.7,0.2
				c0.4,0,0.7-0.1,0.9-0.4C231.8,57.5,231.9,57.1,231.9,56.7z"/>
			<path d="M241.8,59.4h-2v-3.7c0-1-0.4-1.5-1.1-1.5c-0.4,0-0.6,0.1-0.9,0.4c-0.2,0.3-0.3,0.6-0.3,1v3.8h-2v-6.6h2v1h0
				c0.5-0.8,1.2-1.2,2.1-1.2c1.5,0,2.2,0.9,2.2,2.7V59.4z"/>
			<path d="M249.7,52.8l-2.7,7.1c-0.6,1.7-1.6,2.6-2.9,2.6c-0.5,0-0.9-0.1-1.2-0.2v-1.6c0.3,0.2,0.6,0.2,0.9,0.2
				c0.5,0,0.9-0.2,1.1-0.7l0.3-0.8l-2.7-6.6h2.2l1.2,4c0.1,0.2,0.1,0.5,0.2,0.9h0c0-0.2,0.1-0.5,0.2-0.9l1.2-4H249.7z"/>
			<path d="M259.8,59.4h-5.5v-9.2h2.1v7.5h3.4V59.4z"/>
			<path d="M267.5,51.9h-2.6v7.5h-2.1v-7.5h-2.6v-1.7h7.3V51.9z"/>
			<path d="M268.7,59.4v-9.2h3.3c3.3,0,4.9,1.5,4.9,4.5c0,1.4-0.4,2.6-1.3,3.4c-0.9,0.9-2.1,1.3-3.6,1.3H268.7z M270.8,51.9v5.8h1
				c0.9,0,1.6-0.3,2.1-0.8c0.5-0.5,0.8-1.3,0.8-2.2c0-0.9-0.3-1.6-0.8-2.1c-0.5-0.5-1.2-0.8-2.1-0.8H270.8z"/>
			<path d="M279.2,59.6c-0.3,0-0.6-0.1-0.8-0.3c-0.2-0.2-0.3-0.5-0.3-0.8c0-0.3,0.1-0.6,0.3-0.8c0.2-0.2,0.5-0.3,0.9-0.3
				c0.3,0,0.6,0.1,0.9,0.3c0.2,0.2,0.3,0.5,0.3,0.8c0,0.3-0.1,0.6-0.3,0.8C279.8,59.5,279.5,59.6,279.2,59.6z"/>
		</g>
	</g>
	<g transform="translate(0 -1)">
		<path id="Shape" d="M47.1,16.9c-0.3-1.9-4.1-2.2-4.8-0.4C43.9,16.2,45.6,16.4,47.1,16.9z"/>
		<path d="M10.7,58.4c14,2,10.8,8.7,23.8,7.4c7.3-0.8,13.9-4.4,18.7-10c-15.3-0.9-28.8-7.9-40.3-6.2c-5.2,3.7-10.6,7.2-13.3,9.4
			C1.2,58.4,4.6,57.6,10.7,58.4L10.7,58.4z"/>
		<path d="M22.5,47.4c0.7-5.5,3.4-20.2,13.2-27.3c-5.4,1.2-11.9,3.9-15.7,9.3c-4.3,6-5.8,14.3-6.3,17.7C16.7,46.9,19.6,47,22.5,47.4
			z"/>
		<path d="M51.1,53.2c2.9,0.3,5.4,0.3,9.2,0.6c3.7,0.3,5.1,0.8,6.2,0.1c0.7-0.5,1.1-1.2,1.2-2c0.4-2.2,0.6-4.5,0.5-6.8
			c0-12-6.2-20.6-18.5-24.9C57.1,29.4,52.9,46.9,51.1,53.2L51.1,53.2z"/>
		<path d="M25,47.7c5.1,0.9,14.2,3.7,23.7,5.1c1.6-5.5,7.2-27.5-4.3-34C29.3,22,25.7,41.5,25,47.7L25,47.7z"/>
	</g>
</g>
</svg>
